<svg width="35" height="34" viewBox="0 0 35 34" fill="none" xmlns="http://www.w3.org/2000/svg">
<path fill-rule="evenodd" clip-rule="evenodd" d="M17.8242 28.9976C17.7164 28.9992 17.6083 29 17.5 29C7.83502 29 0 22.5081 0 14.5C0 6.49187 7.83502 0 17.5 0C27.165 0 35 6.49187 35 14.5C35 16.5253 34.4989 18.4536 33.5938 20.2044C32.3794 22.6797 30.5051 24.8888 28.472 26.7945C25.3743 29.6981 21.7901 31.89 19.2378 33.1253C18.5627 33.4521 17.8242 32.9404 17.8242 32.2278V28.9976ZM11.5 15.25C11.5 16.6307 10.3807 17.75 9 17.75C7.61929 17.75 6.5 16.6307 6.5 15.25C6.5 13.8693 7.61929 12.75 9 12.75C10.3807 12.75 11.5 13.8693 11.5 15.25ZM17.5 17.75C18.8807 17.75 20 16.6307 20 15.25C20 13.8693 18.8807 12.75 17.5 12.75C16.1193 12.75 15 13.8693 15 15.25C15 16.6307 16.1193 17.75 17.5 17.75ZM28.5 15.25C28.5 16.6307 27.3807 17.75 26 17.75C24.6193 17.75 23.5 16.6307 23.5 15.25C23.5 13.8693 24.6193 12.75 26 12.75C27.3807 12.75 28.5 13.8693 28.5 15.25Z" fill="#FBFBFB"/>
<path fill-rule="evenodd" clip-rule="evenodd" d="M17.5 29C27.165 29 35 22.5081 35 14.5C35 6.49187 27.165 0 17.5 0C7.83502 0 0 6.49187 0 14.5C0 22.5081 7.83502 29 17.5 29ZM9 17.75C10.3807 17.75 11.5 16.6307 11.5 15.25C11.5 13.8693 10.3807 12.75 9 12.75C7.61929 12.75 6.5 13.8693 6.5 15.25C6.5 16.6307 7.61929 17.75 9 17.75ZM20 15.25C20 16.6307 18.8807 17.75 17.5 17.75C16.1193 17.75 15 16.6307 15 15.25C15 13.8693 16.1193 12.75 17.5 12.75C18.8807 12.75 20 13.8693 20 15.25ZM26 17.75C27.3807 17.75 28.5 16.6307 28.5 15.25C28.5 13.8693 27.3807 12.75 26 12.75C24.6193 12.75 23.5 13.8693 23.5 15.25C23.5 16.6307 24.6193 17.75 26 17.75Z" fill="white"/>
</svg>
